<svg width="28.000000" height="28.000000" viewBox="0 0 28 28" fill="none" xmlns="http://www.w3.org/2000/svg" xmlns:xlink="http://www.w3.org/1999/xlink">
	<desc>
			Created with Pixso.
	</desc>
	<defs>
		<clipPath id="clip2_2194">
			<rect id="Search" rx="0.000000" width="27.000000" height="27.000000" transform="translate(0.500000 0.500000)" fill="white" fill-opacity="0"/>
		</clipPath>
	</defs>
	<rect id="Search" rx="0.000000" width="27.000000" height="27.000000" transform="translate(0.500000 0.500000)" fill="#FFFFFF" fill-opacity="0"/>
	<g clip-path="url(#clip2_2194)">
		<path id="Vector" d="M24.97 23.04L19.83 17.89C21.06 16.25 21.73 14.24 21.73 12.18C21.73 6.91 17.44 2.62 12.17 2.62C6.91 2.62 2.62 6.91 2.62 12.18C2.62 17.44 6.91 21.73 12.17 21.73C14.24 21.73 16.25 21.06 17.89 19.82L23.04 24.97C23.3 25.2 23.64 25.33 23.99 25.32C24.34 25.31 24.67 25.16 24.92 24.92C25.16 24.67 25.31 24.34 25.32 23.99C25.33 23.64 25.2 23.3 24.97 23.04ZM5.35 12.18C5.35 10.83 5.75 9.51 6.5 8.38C7.25 7.26 8.32 6.39 9.56 5.87C10.81 5.35 12.18 5.22 13.51 5.48C14.83 5.74 16.05 6.39 17 7.35C17.96 8.3 18.61 9.52 18.87 10.84C19.13 12.17 19 13.54 18.48 14.79C17.96 16.03 17.09 17.1 15.97 17.85C14.84 18.6 13.53 19 12.17 19C10.37 19 8.63 18.28 7.35 17C6.07 15.72 5.35 13.98 5.35 12.18Z" fill="#232321" fill-opacity="1.000000" fill-rule="nonzero"/>
		<path id="Vector" d="M19.83 17.89C21.06 16.25 21.73 14.24 21.73 12.18C21.73 6.91 17.44 2.62 12.17 2.62C6.91 2.62 2.62 6.91 2.62 12.18C2.62 17.44 6.91 21.73 12.17 21.73C14.24 21.73 16.25 21.06 17.89 19.82L23.04 24.97C23.3 25.2 23.64 25.33 23.99 25.32C24.34 25.31 24.67 25.16 24.92 24.92C25.16 24.67 25.31 24.34 25.32 23.99C25.33 23.64 25.2 23.3 24.97 23.04L19.83 17.89ZM24.94 23.07L19.76 17.9L19.79 17.87C20.09 17.46 20.37 17.03 20.6 16.58C20.84 16.13 21.04 15.66 21.2 15.17C21.36 14.69 21.48 14.2 21.56 13.7C21.64 13.2 21.68 12.69 21.68 12.18C21.68 11.48 21.61 10.79 21.46 10.13C21.34 9.57 21.16 9.02 20.93 8.48C20.71 7.95 20.45 7.45 20.14 6.98C19.78 6.43 19.37 5.93 18.9 5.45C18.42 4.98 17.91 4.57 17.37 4.21C16.9 3.9 16.4 3.64 15.87 3.42C15.33 3.19 14.78 3.01 14.22 2.89C13.56 2.74 12.87 2.67 12.17 2.67C11.48 2.67 10.8 2.74 10.13 2.89C9.57 3.01 9.02 3.19 8.48 3.42C7.95 3.64 7.45 3.9 6.98 4.21C6.44 4.57 5.93 4.98 5.45 5.45C4.98 5.93 4.57 6.43 4.21 6.98C3.9 7.45 3.64 7.95 3.41 8.48C3.19 9.02 3.01 9.57 2.89 10.13C2.74 10.8 2.67 11.48 2.67 12.18C2.67 12.87 2.74 13.55 2.89 14.22C3.01 14.78 3.19 15.33 3.41 15.87C3.64 16.4 3.9 16.9 4.21 17.37C4.57 17.92 4.98 18.42 5.45 18.89C5.93 19.37 6.43 19.78 6.98 20.14C7.45 20.45 7.95 20.71 8.48 20.93C9.02 21.16 9.57 21.34 10.13 21.46C10.79 21.61 11.48 21.68 12.17 21.68C12.69 21.68 13.2 21.64 13.7 21.56C14.2 21.48 14.69 21.36 15.17 21.2C15.66 21.04 16.13 20.84 16.58 20.6C17.03 20.37 17.46 20.1 17.87 19.79L17.9 19.76L23.07 24.94C23.13 24.99 23.2 25.04 23.27 25.08C23.34 25.13 23.42 25.16 23.5 25.19C23.58 25.22 23.66 25.24 23.74 25.25C23.82 25.27 23.9 25.27 23.99 25.27C24.07 25.27 24.16 25.26 24.24 25.24C24.32 25.22 24.4 25.2 24.47 25.16C24.55 25.13 24.62 25.09 24.69 25.04C24.76 25 24.83 24.94 24.88 24.88C24.94 24.83 25 24.76 25.04 24.69C25.09 24.62 25.13 24.55 25.16 24.47C25.2 24.4 25.22 24.32 25.24 24.24C25.26 24.16 25.27 24.07 25.27 23.99C25.27 23.9 25.27 23.82 25.25 23.74C25.24 23.66 25.22 23.58 25.19 23.5C25.16 23.42 25.13 23.34 25.08 23.27C25.04 23.2 24.99 23.13 24.94 23.07ZM7.08 7.56C6.86 7.81 6.65 8.07 6.46 8.36C6.27 8.64 6.11 8.93 5.96 9.24C5.82 9.54 5.7 9.85 5.6 10.18C5.5 10.51 5.43 10.83 5.38 11.17C5.33 11.5 5.3 11.83 5.3 12.18C5.3 12.63 5.35 13.08 5.44 13.52C5.52 13.95 5.65 14.38 5.83 14.8C6 15.22 6.21 15.62 6.46 15.99C6.71 16.36 7 16.71 7.32 17.03C7.64 17.35 7.99 17.64 8.36 17.89C8.73 18.14 9.13 18.35 9.55 18.52C9.97 18.7 10.4 18.83 10.84 18.91C11.27 19 11.72 19.05 12.17 19.05C12.51 19.05 12.85 19.02 13.18 18.97C13.52 18.92 13.84 18.85 14.17 18.75C14.5 18.65 14.81 18.53 15.11 18.39C15.42 18.24 15.71 18.08 15.99 17.89C16.28 17.7 16.54 17.49 16.79 17.27C17.04 17.04 17.27 16.8 17.49 16.53C17.7 16.27 17.9 16 18.07 15.71C18.24 15.42 18.39 15.12 18.52 14.8C18.65 14.49 18.76 14.17 18.84 13.85C18.92 13.52 18.98 13.19 19.01 12.85C19.05 12.51 19.06 12.17 19.04 11.84C19.02 11.5 18.98 11.17 18.91 10.83C18.85 10.5 18.76 10.17 18.64 9.86C18.53 9.54 18.4 9.23 18.24 8.94C18.08 8.64 17.89 8.35 17.69 8.08C17.49 7.81 17.27 7.56 17.03 7.32C16.79 7.08 16.54 6.85 16.27 6.65C16 6.45 15.71 6.27 15.41 6.11C15.11 5.95 14.81 5.82 14.49 5.7C14.17 5.59 13.85 5.5 13.52 5.43C13.18 5.37 12.85 5.33 12.51 5.31C12.18 5.29 11.84 5.3 11.5 5.34C11.16 5.37 10.83 5.43 10.5 5.51C10.18 5.59 9.86 5.7 9.54 5.83C9.23 5.96 8.93 6.11 8.64 6.28C8.35 6.45 8.08 6.65 7.82 6.86C7.55 7.08 7.31 7.31 7.08 7.56ZM5.35 12.18C5.35 10.83 5.75 9.51 6.5 8.38C7.25 7.26 8.32 6.39 9.56 5.87C10.81 5.35 12.18 5.22 13.51 5.48C14.83 5.74 16.05 6.39 17 7.35C17.96 8.3 18.61 9.52 18.87 10.84C19.13 12.17 19 13.54 18.48 14.79C17.96 16.03 17.09 17.1 15.97 17.85C14.84 18.6 13.53 19 12.17 19C10.37 19 8.63 18.28 7.35 17C6.07 15.72 5.35 13.98 5.35 12.18Z" fill="#232321" fill-opacity="1.000000" fill-rule="evenodd"/>
	</g>
</svg>
