<svg width="32.000000" height="32.000000" viewBox="0 0 32 32" fill="none" xmlns="http://www.w3.org/2000/svg" xmlns:xlink="http://www.w3.org/1999/xlink">
	<desc>
			Created with Pixso.
	</desc>
	<defs>
		<clipPath id="clip107_866">
			<rect id="heart" rx="0.000000" width="31.000000" height="31.000000" transform="translate(0.500000 0.500000)" fill="white" fill-opacity="0"/>
		</clipPath>
	</defs>
	<rect id="heart" rx="0.000000" width="31.000000" height="31.000000" transform="translate(0.500000 0.500000)" fill="#FFFFFF" fill-opacity="0"/>
	<g clip-path="url(#clip107_866)">
		<path id="Vector" d="M16 9C16 9 14 5 9.94 5C6.64 5 4.03 7.75 4 11.05C3.93 17.88 9.42 22.74 15.43 26.82C15.6 26.93 15.79 27 16 27C16.2 27 16.39 26.93 16.56 26.82C22.57 22.74 28.06 17.88 28 11.05C27.96 7.75 25.35 5 22.05 5C18 5 16 9 16 9Z" stroke="#232321" stroke-opacity="1.000000" stroke-width="1.500000" stroke-linejoin="round"/>
	</g>
</svg>
