<svg width="24.000000" height="24.000000" viewBox="0 0 24 24" fill="none" xmlns="http://www.w3.org/2000/svg" xmlns:xlink="http://www.w3.org/1999/xlink">
	<desc>
			Created with Pixso.
	</desc>
	<defs>
		<clipPath id="clip2_2196">
			<rect id="User" rx="0.000000" width="23.000000" height="23.000000" transform="translate(0.500000 0.500000)" fill="white" fill-opacity="0"/>
		</clipPath>
	</defs>
	<rect id="User" rx="0.000000" width="23.000000" height="23.000000" transform="translate(0.500000 0.500000)" fill="#FFFFFF" fill-opacity="0"/>
	<g clip-path="url(#clip2_2196)">
		<path id="Vector" d="M15.59 3.02C14.68 2.04 13.4 1.5 12 1.5C10.58 1.5 9.3 2.03 8.4 3.01C7.48 4 7.03 5.35 7.14 6.8C7.34 9.66 9.52 12 12 12C14.47 12 16.64 9.66 16.85 6.8C16.96 5.36 16.51 4.02 15.59 3.02ZM20.25 22.5L3.75 22.5C3.53 22.5 3.32 22.45 3.12 22.36C2.92 22.27 2.75 22.14 2.61 21.97C2.31 21.61 2.18 21.11 2.27 20.61C2.67 18.41 3.9 16.57 5.85 15.28C7.57 14.13 9.75 13.5 12 13.5C14.24 13.5 16.42 14.13 18.15 15.28C20.09 16.57 21.32 18.41 21.72 20.61C21.81 21.11 21.68 21.61 21.38 21.97C21.24 22.14 21.07 22.27 20.87 22.36C20.68 22.45 20.46 22.5 20.25 22.5Z" fill="#232321" fill-opacity="1.000000" fill-rule="nonzero"/>
		<path id="Vector" d="M15.59 3.02C14.68 2.04 13.4 1.5 12 1.5C10.58 1.5 9.3 2.03 8.4 3.01C7.48 4 7.03 5.35 7.14 6.8C7.34 9.66 9.52 12 12 12C14.47 12 16.64 9.66 16.85 6.8C16.96 5.36 16.51 4.02 15.59 3.02ZM10.37 1.8Q11.14 1.54 12 1.54Q12.81 1.54 13.56 1.78Q13.76 1.85 13.96 1.93Q14.42 2.13 14.81 2.41Q15.21 2.69 15.55 3.05Q15.86 3.38 16.09 3.76Q16.38 4.22 16.56 4.76Q16.62 4.93 16.66 5.11Q16.87 5.92 16.81 6.8Q16.77 7.36 16.62 7.9Q16.5 8.36 16.31 8.8Q15.99 9.53 15.51 10.13Q15.38 10.29 15.24 10.44Q14.59 11.13 13.8 11.52Q13.77 11.53 13.75 11.54Q13.11 11.84 12.46 11.92Q12.23 11.95 12 11.95Q11.77 11.95 11.54 11.92Q10.88 11.85 10.24 11.54Q10.22 11.53 10.19 11.52Q9.4 11.13 8.75 10.44Q8.61 10.28 8.47 10.12Q8 9.52 7.68 8.8Q7.48 8.36 7.36 7.89Q7.22 7.36 7.18 6.8Q7.11 5.85 7.35 4.99Q7.39 4.87 7.43 4.75Q7.62 4.17 7.94 3.67Q8.16 3.34 8.43 3.04Q8.74 2.71 9.1 2.45Q9.53 2.14 10.02 1.93Q10.19 1.86 10.37 1.8ZM3.75 22.5C3.53 22.5 3.32 22.45 3.12 22.36C2.92 22.27 2.75 22.14 2.61 21.97C2.31 21.61 2.18 21.11 2.27 20.61C2.67 18.41 3.9 16.57 5.85 15.28C7.57 14.13 9.75 13.5 12 13.5C14.24 13.5 16.42 14.13 18.15 15.28C20.09 16.57 21.32 18.41 21.72 20.61C21.81 21.11 21.68 21.61 21.38 21.97C21.24 22.14 21.07 22.27 20.87 22.36C20.68 22.45 20.46 22.5 20.25 22.5L3.75 22.5ZM20.25 22.45L3.75 22.45L3.75 22.45Q3.59 22.45 3.43 22.42Q3.28 22.39 3.14 22.32Q3 22.25 2.87 22.16Q2.75 22.07 2.65 21.94Q2.57 21.85 2.51 21.75Q2.4 21.56 2.34 21.33Q2.32 21.24 2.31 21.15Q2.27 20.89 2.32 20.62Q2.51 19.57 2.95 18.64Q3.19 18.12 3.52 17.63Q3.58 17.55 3.64 17.46Q4.52 16.22 5.87 15.32Q7.16 14.46 8.74 14Q9.18 13.87 9.64 13.78Q10.79 13.54 12 13.54Q13.19 13.54 14.34 13.78Q14.8 13.87 15.25 14Q16.83 14.46 18.12 15.32Q19.48 16.22 20.36 17.46Q20.41 17.55 20.47 17.63Q20.8 18.12 21.04 18.64Q21.48 19.57 21.67 20.62Q21.72 20.89 21.69 21.15Q21.67 21.24 21.65 21.33Q21.59 21.56 21.48 21.75Q21.42 21.85 21.34 21.94Q21.24 22.06 21.12 22.16Q21 22.25 20.85 22.32Q20.71 22.39 20.56 22.42Q20.4 22.45 20.25 22.45Z" fill="#232321" fill-opacity="1.000000" fill-rule="evenodd"/>
	</g>
</svg>
